<svg width="13" height="21" viewBox="0 0 13 21" fill="none" xmlns="http://www.w3.org/2000/svg">
<path d="M3.82444 7.00734C3.60712 7.49121 3.20648 7.86893 2.71066 8.05741C2.21485 8.24589 1.66446 8.22969 1.18059 8.01237C0.69672 7.79505 0.318998 7.39441 0.130518 6.89859C-0.0579625 6.40278 -0.0417602 5.8524 0.17556 5.36852L0.994966 3.54409C1.25308 2.96939 1.59012 2.46303 1.97873 2.01271L3.85311 6.94348L3.82444 7.00734ZM8.9265 0.528991C9.60154 0.832172 10.1868 1.23755 10.6773 1.73191L7.26032 4.16558C6.50318 3.82552 5.65977 3.99484 5.08795 4.56019L3.62563 0.713397C4.43597 0.278454 5.33545 0.0356142 6.25458 0.0036397C7.17371 -0.0283348 8.08789 0.151411 8.9265 0.528991ZM12.4151 6.82054L7.44463 8.71L8.29272 6.82171C8.4484 6.47507 8.50058 6.11482 8.45929 5.76741L11.8549 3.35702C12.3825 4.42993 12.5776 5.63601 12.4151 6.82054ZM9.8562 13.1037L4.56852 15.1138L6.28517 11.2916L11.5729 9.28152L9.8562 13.1037ZM7.02516 19.4072C6.80784 19.891 6.4072 20.2687 5.91138 20.4572C5.41557 20.6457 4.86518 20.6295 4.38131 20.4122C3.89744 20.1949 3.51972 19.7942 3.33124 19.2984C3.14276 18.8026 3.15896 18.2522 3.37628 17.7683L3.41315 17.6862L8.70084 15.6762L7.02516 19.4072Z" fill="#202124"/>
</svg>
