<svg width="276" height="44" viewBox="0 0 276 44" fill="none" xmlns="http://www.w3.org/2000/svg">
<path d="M265.043 33.44C262.975 33.44 260.071 33.22 256.991 32.296L258.355 25.124H258.399L263.855 32.428C264.471 32.604 264.779 32.648 265.307 32.648C267.243 32.648 268.563 31.636 268.563 29.832C268.563 28.512 267.771 27.764 265.923 26.796L263.019 25.256C259.367 23.32 257.607 21.252 257.607 17.908C257.607 13.464 261.215 10.56 267.067 10.56C269.927 10.56 272.215 11.044 274.371 11.836L272.655 18.788H272.611L267.507 11.528C267.287 11.44 266.979 11.396 266.759 11.396C264.823 11.396 263.855 12.496 263.855 13.728C263.855 15.268 264.559 16.368 267.155 17.732L270.455 19.492C273.491 21.12 275.075 23.32 275.075 26.048C275.075 30.624 270.455 33.44 265.043 33.44Z" fill="white"/>
<path d="M246.723 10.56C251.167 10.56 254.555 14.168 254.555 20.988C254.555 28.732 250.287 33.44 244.347 33.44C242.323 33.44 240.563 32.824 239.067 31.856V43.296H242.587V44H228.067V43.296H230.267V16.236L227.759 14.08L239.067 10.12V14.476C241.399 12.1 244.127 10.56 246.723 10.56ZM241.223 31.768C243.511 31.768 245.139 28.776 245.139 23.496C245.139 17.6 243.863 14.652 240.915 14.652C240.255 14.652 239.683 14.828 239.067 15.092V31.108C239.683 31.548 240.475 31.768 241.223 31.768Z" fill="white"/>
<path d="M224.252 32.296H226.452V33H215.452V29.612C212.548 31.724 210.04 33.484 207.576 33.484C203.616 33.484 201.9 31.196 201.9 25.96V16.5L199.392 14.344L210.7 10.384V24.2C210.7 27.896 211.008 29.348 213.208 29.348C213.912 29.348 214.704 29.172 215.452 28.908V16.28L212.944 14.124L224.252 10.164V32.296Z" fill="white"/>
<path d="M196.17 32.296H198.37V33H185.61V32.296H187.37V19.052C187.37 15.62 186.534 14.476 184.73 14.476C183.85 14.476 182.97 14.74 182.09 15.136V32.296H183.85V33H171.09V32.296H173.29V6.116L170.782 3.96L182.09 0V14.52C184.95 12.056 187.502 10.34 190.494 10.34C194.234 10.34 196.17 12.672 196.17 17.16V32.296Z" fill="white"/>
<path d="M157.358 33.88C147.238 33.88 140.594 26.488 140.594 16.104C140.594 6.644 146.93 0.440002 156.566 0.440002C161.098 0.440002 164.882 1.452 168.094 3.124L164.222 18.48H164.178C157.49 5.412 153.97 2.464 150.846 2.464C148.91 2.464 147.414 3.96 147.414 7.48C147.414 18.7 156.566 27.896 165.938 27.896C167.17 27.896 168.71 27.72 169.546 27.324L169.59 27.368C167.478 31.152 162.682 33.88 157.358 33.88Z" fill="white"/>
<path d="M136.287 32.296H138.487V33H127.487V30.492C125.419 32.252 123.087 33.44 120.667 33.44C117.807 33.44 115.871 31.812 115.871 29.04C115.871 24.992 120.183 22.308 127.487 21.516C127.487 16.676 125.551 14.256 122.207 14.256C120.227 14.256 118.863 14.784 117.367 15.928L117.147 15.708C120.139 12.364 123.395 10.56 127.795 10.56C133.339 10.56 136.287 13.728 136.287 20.108V32.296ZM126.475 30.008C126.739 30.008 127.091 29.964 127.487 29.876V22.088C124.847 22.836 123.835 24.508 123.835 26.84C123.835 28.908 124.715 30.008 126.475 30.008Z" fill="white"/>
<path d="M106.129 10.56C110.573 10.56 113.961 14.168 113.961 20.988C113.961 28.732 109.693 33.44 103.753 33.44C101.729 33.44 99.969 32.824 98.473 31.856V43.296H101.993V44H87.473V43.296H89.673V16.236L87.165 14.08L98.473 10.12V14.476C100.805 12.1 103.533 10.56 106.129 10.56ZM100.629 31.768C102.917 31.768 104.545 28.776 104.545 23.496C104.545 17.6 103.269 14.652 100.321 14.652C99.661 14.652 99.089 14.828 98.473 15.092V31.108C99.089 31.548 99.881 31.768 100.629 31.768Z" fill="white"/>
<path d="M83.6585 32.296H85.8585V33H74.8585V29.612C71.9545 31.724 69.4465 33.484 66.9825 33.484C63.0225 33.484 61.3065 31.196 61.3065 25.96V16.5L58.7985 14.344L70.1065 10.384V24.2C70.1065 27.896 70.4145 29.348 72.6145 29.348C73.3185 29.348 74.1105 29.172 74.8585 28.908V16.28L72.3505 14.124L83.6585 10.164V32.296Z" fill="white"/>
<path d="M55.5765 32.296H57.7765V33H45.0165V32.296H46.7765V19.052C46.7765 15.62 45.9405 14.476 44.1365 14.476C43.2565 14.476 42.3765 14.74 41.4965 15.136V32.296H43.2565V33H30.4965V32.296H32.6965V6.116L30.1885 3.96L41.4965 0V14.52C44.3565 12.056 46.9085 10.34 49.9005 10.34C53.6405 10.34 55.5765 12.672 55.5765 17.16V32.296Z" fill="white"/>
<path d="M16.764 33.88C6.644 33.88 0 26.488 0 16.104C0 6.644 6.336 0.440002 15.972 0.440002C20.504 0.440002 24.288 1.452 27.5 3.124L23.628 18.48H23.584C16.896 5.412 13.376 2.464 10.252 2.464C8.316 2.464 6.82 3.96 6.82 7.48C6.82 18.7 15.972 27.896 25.344 27.896C26.576 27.896 28.116 27.72 28.952 27.324L28.996 27.368C26.884 31.152 22.088 33.88 16.764 33.88Z" fill="white"/>
</svg>
