<svg width="17" height="7" viewBox="0 0 17 7" fill="none" xmlns="http://www.w3.org/2000/svg">
<path d="M3.86402 1.39967C3.24914 1.39967 2.65944 1.62087 2.22465 2.0146C1.78987 2.40834 1.54561 2.94236 1.54561 3.49918C1.54561 4.056 1.78987 4.59002 2.22465 4.98376C2.65944 5.37749 3.24914 5.59869 3.86402 5.59869C4.4789 5.59869 5.0686 5.37749 5.50338 4.98376C5.93817 4.59002 6.18243 4.056 6.18243 3.49918C6.18243 2.94236 5.93817 2.40834 5.50338 2.0146C5.0686 1.62087 4.4789 1.39967 3.86402 1.39967ZM0 3.49918C7.68618e-05 2.83482 0.208999 2.18422 0.602339 1.62342C0.995679 1.06263 1.55718 0.614828 2.2212 0.332372C2.88522 0.049916 3.6243 -0.0555207 4.35205 0.0283889C5.0798 0.112298 5.76613 0.382087 6.33081 0.806211C6.9091 0.289741 7.68863 0.000132012 8.50084 0C9.34706 0 10.1129 0.307928 10.6709 0.806211C11.4077 0.253429 12.3448 -0.0321309 13.3007 0.0048134C14.2567 0.0417577 15.1635 0.398579 15.8456 1.0062C16.5278 1.61382 16.9367 2.42902 16.9932 3.29398C17.0498 4.15894 16.75 5.01215 16.1518 5.68842C15.5536 6.36469 14.6996 6.81593 13.7552 6.95477C12.8107 7.09362 11.8429 6.9102 11.0392 6.44002C10.2355 5.96984 9.65306 5.24635 9.40455 4.40961C9.15605 3.57286 9.25921 2.68238 9.69405 1.91055C9.54914 1.75091 9.36699 1.6223 9.16069 1.53397C8.95439 1.44564 8.72904 1.39978 8.50084 1.39967C8.0217 1.39967 7.59125 1.59773 7.30763 1.91055C7.57255 2.38189 7.71604 2.90147 7.72732 3.43025C7.73859 3.95903 7.61736 4.48324 7.37274 4.96349C7.12812 5.44374 6.76646 5.86752 6.31497 6.20299C5.86347 6.53845 5.33387 6.77687 4.76599 6.90033C4.1981 7.02378 3.6067 7.02906 3.03624 6.91576C2.46578 6.80246 1.9311 6.57353 1.47239 6.24618C1.01368 5.91884 0.642882 5.50159 0.387859 5.0258C0.132837 4.55001 0.000227515 4.02806 0 3.49918ZM13.1377 1.39967C12.8331 1.3993 12.5314 1.45336 12.25 1.55874C11.9685 1.66412 11.7128 1.81875 11.4974 2.01378C11.282 2.20881 11.1113 2.44041 10.9949 2.6953C10.8785 2.95019 10.8188 3.22336 10.8193 3.49918C10.8193 3.91442 10.9552 4.32034 11.21 4.6656C11.4647 5.01087 11.8268 5.27996 12.2504 5.43887C12.6741 5.59778 13.1402 5.63936 13.59 5.55835C14.0397 5.47734 14.4528 5.27738 14.777 4.98376C15.1013 4.69013 15.3221 4.31604 15.4115 3.90877C15.501 3.50151 15.4551 3.07937 15.2796 2.69573C15.1041 2.3121 14.807 1.9842 14.4257 1.7535C14.0444 1.52281 13.5962 1.39967 13.1377 1.39967Z" fill="#F8F9FA"/>
</svg>
