<svg width="170" height="15" viewBox="0 0 170 15" fill="none" xmlns="http://www.w3.org/2000/svg">
<g clip-path="url(#clip0_564_249)">
<path d="M8.28 5.3C7.8 3.14 6.7 2.4 5 2.4C2.88 2.4 1.72 3.72 1.72 7.14V8.66C1.72 12.08 2.88 13.4 5 13.4C6.8 13.4 7.82 12.52 8.28 10.5H9.94C9.5 13.6 7.62 14.96 5 14.96C1.94 14.96 0 13.12 0 8.66V7.14C0 2.68 1.94 0.839996 5 0.839996C7.72 0.839996 9.52 2.28 9.96 5.3H8.28Z" fill="white"/>
<path d="M11.86 1H13.46V5.78C13.96 5.02 14.66 4.64 16.14 4.64C18.28 4.64 19.78 5.76 19.78 8.56V14.8H18.18V8.58C18.18 6.56 17.08 6.12 15.9 6.12C14.4 6.12 13.46 7.18 13.46 8.56V14.8H11.86V1Z" fill="white"/>
<path d="M30.3 14.8H28.7V13.82C28.2 14.58 27.5 14.96 26.02 14.96C23.88 14.96 22.38 13.84 22.38 11.04V4.8H23.98V11.02C23.98 13.04 25.08 13.48 26.26 13.48C27.76 13.48 28.7 12.42 28.7 11.04V4.8H30.3V14.8Z" fill="white"/>
<path d="M38.32 6.96C37.9 6.38 37.38 6.12 36.64 6.12C35.42 6.12 34.5 7.04 34.5 8.54V14.8H32.9V4.8H34.5V5.78C34.92 5.08 35.6 4.64 36.82 4.64C38.18 4.64 39.04 5.1 39.68 6L38.32 6.96Z" fill="white"/>
<path d="M43.82 9.02H46.2V7.86C46.2 6.44 45.54 6.12 43.98 6.12C42.78 6.12 42.14 6.22 41.58 7.14L40.38 6.3C41.08 5.14 42.1 4.64 44 4.64C46.54 4.64 47.8 5.46 47.8 7.86V14.8H46.2V13.82C45.64 14.74 44.96 14.96 43.66 14.96C41.34 14.96 40.08 13.82 40.08 11.88C40.08 9.72 41.62 9.02 43.82 9.02ZM46.2 10.38H43.82C42.24 10.38 41.68 10.92 41.68 11.92C41.68 13.04 42.48 13.48 43.66 13.48C45.14 13.48 46.2 13.2 46.2 10.96V10.38Z" fill="white"/>
<path d="M58.98 4.8L54.98 14.8H53.38L49.3 4.8H51.1L54.14 12.76L57.18 4.8H58.98Z" fill="white"/>
<path d="M67.76 13.28C67.06 14.5 66 14.96 64.26 14.96C61.58 14.96 59.98 13.22 59.98 10.44V9.12C59.98 6.28 61.32 4.64 63.94 4.64C66.56 4.64 67.9 6.26 67.9 9.12V10.16H61.58V10.44C61.58 12.16 62.4 13.52 64.14 13.52C65.44 13.52 66.1 13.14 66.52 12.4L67.76 13.28ZM61.58 8.76H66.28C66.2 7.08 65.46 6.08 63.94 6.08C62.42 6.08 61.68 7.1 61.58 8.76Z" fill="white"/>
<path d="M70.24 1H71.84V11.32C71.84 12.4 71.9 13.32 73.54 13.32V14.8C71.02 14.8 70.24 13.8 70.24 11.72V1Z" fill="white"/>
<path d="M83 13.28C82.3 14.5 81.24 14.96 79.5 14.96C76.82 14.96 75.22 13.22 75.22 10.44V9.12C75.22 6.28 76.56 4.64 79.18 4.64C81.8 4.64 83.14 6.26 83.14 9.12V10.16H76.82V10.44C76.82 12.16 77.64 13.52 79.38 13.52C80.68 13.52 81.34 13.14 81.76 12.4L83 13.28ZM76.82 8.76H81.52C81.44 7.08 80.7 6.08 79.18 6.08C77.66 6.08 76.92 7.1 76.82 8.76Z" fill="white"/>
<path d="M90.9 6.96C90.48 6.38 89.96 6.12 89.22 6.12C88 6.12 87.08 7.04 87.08 8.54V14.8H85.48V4.8H87.08V5.78C87.5 5.08 88.18 4.64 89.4 4.64C90.76 4.64 91.62 5.1 92.26 6L90.9 6.96Z" fill="white"/>
<path d="M94.98 3.7L93.26 5.18V0H94.98V3.7Z" fill="white"/>
<path d="M103.42 7.14C102.88 6.44 102.32 6.12 100.94 6.12C99.76 6.12 99 6.58 99 7.46C99 8.6 100 8.94 101.32 9.04C103.2 9.18 104.92 9.72 104.92 12.02C104.92 13.76 103.74 14.96 101.16 14.96C99.12 14.96 98.06 14.34 97.3 13.3L98.48 12.46C99.02 13.18 99.74 13.48 101.18 13.48C102.52 13.48 103.32 12.96 103.32 12.06C103.32 10.98 102.68 10.6 100.74 10.46C99.06 10.34 97.4 9.66 97.4 7.48C97.4 5.82 98.6 4.64 100.98 4.64C102.6 4.64 103.84 5.06 104.62 6.3L103.42 7.14Z" fill="white"/>
<path d="M114.24 13.24H120.84V14.8H112.52V1H114.24V13.24Z" fill="white"/>
<path d="M125.38 9.02H127.76V7.86C127.76 6.44 127.1 6.12 125.54 6.12C124.34 6.12 123.7 6.22 123.14 7.14L121.94 6.3C122.64 5.14 123.66 4.64 125.56 4.64C128.1 4.64 129.36 5.46 129.36 7.86V14.8H127.76V13.82C127.2 14.74 126.52 14.96 125.22 14.96C122.9 14.96 121.64 13.82 121.64 11.88C121.64 9.72 123.18 9.02 125.38 9.02ZM127.76 10.38H125.38C123.8 10.38 123.24 10.92 123.24 11.92C123.24 13.04 124.04 13.48 125.22 13.48C126.7 13.48 127.76 13.2 127.76 10.96V10.38Z" fill="white"/>
<path d="M138.18 1H139.78V14.8H138.18V13.92C137.64 14.62 136.78 14.96 135.46 14.96C132.74 14.96 131.46 13.04 131.46 10.44V9.12C131.46 6.26 132.98 4.64 135.46 4.64C136.78 4.64 137.64 5.06 138.18 5.8V1ZM138.18 10.58V9.12C138.18 7.24 137.26 6.08 135.62 6.08C133.98 6.08 133.06 7.22 133.06 9.12V10.44C133.06 12.14 133.92 13.52 135.62 13.52C137.32 13.52 138.18 12.24 138.18 10.58Z" fill="white"/>
<path d="M148.6 1H150.2V14.8H148.6V13.92C148.06 14.62 147.2 14.96 145.88 14.96C143.16 14.96 141.88 13.04 141.88 10.44V9.12C141.88 6.26 143.4 4.64 145.88 4.64C147.2 4.64 148.06 5.06 148.6 5.8V1ZM148.6 10.58V9.12C148.6 7.24 147.68 6.08 146.04 6.08C144.4 6.08 143.48 7.22 143.48 9.12V10.44C143.48 12.14 144.34 13.52 146.04 13.52C147.74 13.52 148.6 12.24 148.6 10.58Z" fill="white"/>
<path d="M160.08 13.28C159.38 14.5 158.32 14.96 156.58 14.96C153.9 14.96 152.3 13.22 152.3 10.44V9.12C152.3 6.28 153.64 4.64 156.26 4.64C158.88 4.64 160.22 6.26 160.22 9.12V10.16H153.9V10.44C153.9 12.16 154.72 13.52 156.46 13.52C157.76 13.52 158.42 13.14 158.84 12.4L160.08 13.28ZM153.9 8.76H158.6C158.52 7.08 157.78 6.08 156.26 6.08C154.74 6.08 154 7.1 153.9 8.76Z" fill="white"/>
<path d="M167.98 6.96C167.56 6.38 167.04 6.12 166.3 6.12C165.08 6.12 164.16 7.04 164.16 8.54V14.8H162.56V4.8H164.16V5.78C164.58 5.08 165.26 4.64 166.48 4.64C167.84 4.64 168.7 5.1 169.34 6L167.98 6.96Z" fill="white"/>
</g>
<defs>
<clipPath id="clip0_564_249">
<rect width="169.34" height="14.96" fill="white"/>
</clipPath>
</defs>
</svg>
