<svg width="241" height="36" viewBox="0 0 241 36" fill="none" xmlns="http://www.w3.org/2000/svg">
<g clip-path="url(#clip0_567_211)">
<path d="M10.56 28.31C4.36 28.31 0 24.55 0 16.11V12.19C0 3.68 4.36 0 10.56 0C16.76 0 21.16 3.68 21.16 12.2V16.12C21.16 24.56 16.8 28.32 10.56 28.32V28.31ZM5.6 16.12C5.6 21.4 7.32 23.6 10.56 23.6C13.8 23.6 15.56 21.4 15.56 16.12V12.2C15.56 6.92 13.8 4.72 10.56 4.72C7.32 4.72 5.6 6.92 5.6 12.2V16.12Z" fill="white"/>
<path d="M42.4 19.28C42.4 24.48 39.76 28.32 34.6 28.32C32.52 28.32 31.12 27.92 30.2 27.16V35.56H25.08V7.96001H30.2V9.28001C31.16 8.20001 32.6 7.60001 34.64 7.60001C39.28 7.60001 42.4 10.84 42.4 16.56V19.28ZM37.28 18.96V16.88C37.28 13.68 36.28 11.92 33.76 11.92C31.24 11.92 30.2 13.52 30.2 16.44V18.96C30.2 21.84 30.88 24 33.76 24C36.64 24 37.28 21.84 37.28 18.96Z" fill="white"/>
<path d="M61.24 24.92C59.84 27.36 57.52 28.32 53.92 28.32C47.92 28.32 45.04 24.44 45.04 19.28V16.56C45.04 10.52 48.08 7.60001 53.28 7.60001C58.92 7.60001 61.52 10.88 61.52 16.96V19.24H50.12C50.16 22 51.04 24 53.88 24C56 24 56.68 23.36 57.44 22.28L61.24 24.92ZM50.12 15.6H56.4C56.28 13 55.24 11.92 53.32 11.92C51.28 11.92 50.32 13.32 50.12 15.6Z" fill="white"/>
<path d="M65.2 7.96001H70.2V9.64001C70.96 8.64001 72.56 7.60001 74.8 7.60001C78.84 7.60001 82.12 9.52001 82.12 15.44V27.96H77.04V16.24C77.04 13.12 75.92 12 73.84 12C71.48 12 70.32 13.56 70.32 16.2V27.96H65.2V7.96001Z" fill="white"/>
<path d="M86.24 7.96001H91.24V9.64001C92 8.64001 93.6 7.60001 95.84 7.60001C99.88 7.60001 103.16 9.52001 103.16 15.44V27.96H98.08V16.24C98.08 13.12 96.96 12 94.88 12C92.52 12 91.36 13.56 91.36 16.2V27.96H86.24V7.96001Z" fill="white"/>
<path d="M107.68 0.360001H113.2V5.32H107.68V0.360001ZM107.88 7.96H113V27.96H107.88V7.96Z" fill="white"/>
<path d="M117.68 7.96001H122.68V9.64001C123.44 8.64001 125.04 7.60001 127.28 7.60001C131.32 7.60001 134.6 9.52001 134.6 15.44V27.96H129.52V16.24C129.52 13.12 128.4 12 126.32 12C123.96 12 122.8 13.56 122.8 16.2V27.96H117.68V7.96001Z" fill="white"/>
<path d="M150.19 7.96001H155.27V27.56C155.27 34.24 151.51 35.8 146.47 35.8C142.75 35.8 140.39 34.92 138.63 32.2L142.07 29.72C142.95 30.92 144.11 31.52 145.99 31.52C149.03 31.52 150.19 30.64 150.19 27.56V26.92C149.11 27.84 147.71 28.32 145.91 28.32C140.67 28.32 137.99 24.6 137.99 19.28V16.56C137.99 10.72 141.15 7.60001 145.91 7.60001C147.71 7.60001 149.11 8.08001 150.19 9.00001V7.96001ZM150.19 19.4V16.88C150.19 13.68 149.15 11.92 146.63 11.92C144.11 11.92 143.07 13.68 143.07 16.88V18.96C143.07 21.84 143.87 24 146.63 24C149.39 24 150.19 22.04 150.19 19.4Z" fill="white"/>
<path d="M189.15 22.71L192.99 25.99L190.03 29.51L186.31 26.35C184.55 27.67 182.35 28.31 179.79 28.31C173.59 28.31 169.23 24.55 169.23 16.11V12.19C169.23 3.67 173.59 -0.00999451 179.79 -0.00999451C185.99 -0.00999451 190.39 3.67 190.39 12.19V16.11C190.39 18.79 189.95 20.95 189.15 22.71ZM174.84 16.12C174.84 21.4 176.56 23.6 179.8 23.6C180.76 23.6 181.64 23.4 182.32 22.96L179.2 20.28L182.24 16.72L184.6 18.8C184.72 18 184.8 17.12 184.8 16.12V12.2C184.8 6.92001 183.04 4.72001 179.8 4.72001C176.56 4.72001 174.84 6.92001 174.84 12.2V16.12Z" fill="white"/>
<path d="M211.51 27.96H206.51V26.28C205.67 27.64 204.59 28.32 201.95 28.32C197.91 28.32 194.59 26.32 194.59 20.44V7.96001H199.71V19.68C199.71 22.84 200.83 23.92 202.95 23.92C205.31 23.92 206.43 22.48 206.43 19.72V7.96001H211.51V27.96Z" fill="white"/>
<path d="M216.04 0.360001H221.56V5.32H216.04V0.360001ZM216.24 7.96H221.36V27.96H216.24V7.96Z" fill="white"/>
<path d="M233.99 12.28H225.31V7.96001H240.59V11.52L231.91 23.64H240.87V27.96H225.19V24.4L233.99 12.28Z" fill="white"/>
</g>
<defs>
<clipPath id="clip0_567_211">
<rect width="240.87" height="35.79" fill="white"/>
</clipPath>
</defs>
</svg>
