<svg width="89" height="17" viewBox="0 0 89 17" fill="none" xmlns="http://www.w3.org/2000/svg">
<g clip-path="url(#clip0_567_226)">
<path d="M5.32619 8.54797L9.59086 0H10.6524V12.8499H9.57224V2.36512L5.79176 9.98194H4.82336L1.08014 2.38375V12.8499H0V0H1.04289L5.32619 8.54797Z" fill="white"/>
<path d="M13.688 15.3826C15.1405 15.3826 15.6061 14.8984 16.2393 13.1106L16.2766 12.9989L12.4588 3.53838H13.5762L16.798 11.509L19.5542 3.53838H20.6343L17.2636 13.2223C16.5 15.4571 15.9041 16.3883 13.688 16.3883V15.3826Z" fill="white"/>
<path d="M27.5062 5.53102C26.9289 4.71161 26.333 4.39502 24.9735 4.39502C23.7258 4.39502 22.776 4.86059 22.776 5.92211C22.776 7.22572 23.9492 7.48644 25.2528 7.65405C27.0593 7.89615 28.5677 8.41759 28.5677 10.3916C28.5677 11.8442 27.6366 12.9616 25.1597 12.9616C23.316 12.9616 22.3477 12.3843 21.6586 11.4159L22.4594 10.8572C23.0181 11.6394 23.7258 11.9932 25.1784 11.9932C26.6309 11.9932 27.5435 11.5276 27.5435 10.4103C27.5435 9.21838 26.6123 8.80867 24.7686 8.56658C23.1857 8.36172 21.7517 7.82165 21.7517 5.94073C21.7517 4.43226 22.8877 3.42662 24.9921 3.42662C26.4633 3.42662 27.5807 3.8177 28.2884 4.97233L27.5062 5.53102Z" fill="white"/>
<path d="M29.9458 3.53837H31.1377V1.48984H32.162V3.53837H34.4526V4.48814H32.162V9.70259C32.162 11.1924 32.3296 11.8629 33.838 11.8629H34.4526V12.8499H33.8008C31.7336 12.8499 31.1377 11.9187 31.1377 9.98194V4.48814H29.9458V3.53837Z" fill="white"/>
<path d="M36.9667 8.45484V8.84592C36.9667 10.6896 37.8234 12.0118 39.7974 12.0118C40.9334 12.0118 41.697 11.6766 42.2184 10.8758L43.0378 11.4531C42.386 12.4774 41.3617 12.9616 39.8533 12.9616C37.3764 12.9616 35.9424 11.4345 35.9424 8.84592V7.50506C35.9424 4.86059 37.2088 3.42662 39.5367 3.42662C41.8646 3.42662 43.1309 4.86059 43.1309 7.50506V8.45484H36.9667ZM36.9667 7.52369H42.1067V7.50506C42.1067 5.47515 41.2314 4.37639 39.5367 4.37639C37.842 4.37639 36.9667 5.49378 36.9667 7.50506V7.52369Z" fill="white"/>
<path d="M46.4458 7.24434V12.8499H45.4216V3.53836H46.4458V4.80472C46.8369 3.94806 47.6191 3.42662 48.7923 3.42662C49.9656 3.42662 50.8036 3.8922 51.4182 4.71161L50.5615 5.34479C50.0773 4.71161 49.5186 4.39502 48.6992 4.39502C47.2466 4.39502 46.4458 5.54965 46.4458 7.24434Z" fill="white"/>
<path d="M52.6845 15.3826C54.1371 15.3826 54.6027 14.8984 55.2359 13.1106L55.2731 12.9989L51.4554 3.53838H52.5728L55.7946 11.509L58.5508 3.53838H59.6309L56.2602 13.2223C55.4966 15.4571 54.9007 16.3883 52.6845 16.3883V15.3826Z" fill="white"/>
<path d="M65.3668 7.50506C65.3668 4.86059 66.6891 3.42662 68.9983 3.42662C70.395 3.42662 71.2889 3.87357 71.8104 4.74885V3.53836H72.8347V12.4774C72.8347 15.066 71.4379 16.5 69.0356 16.5C67.5457 16.5 66.5587 16.0158 65.9441 14.9915L66.7449 14.4142C67.2478 15.215 68.0113 15.5502 69.0914 15.5502C70.9724 15.5502 71.8104 14.3211 71.8104 12.4774V11.7139C71.2889 12.5705 70.395 12.9616 68.9983 12.9616C66.5773 12.9616 65.3668 11.3973 65.3668 8.84592V7.50506ZM71.8104 8.86454V7.39332C71.8104 5.56827 71.0096 4.37639 69.0728 4.37639C67.3036 4.37639 66.3911 5.47515 66.3911 7.50506V8.84592C66.3911 10.8013 67.2664 12.0118 69.0728 12.0118C71.1586 12.0118 71.8104 10.6896 71.8104 8.86454Z" fill="white"/>
<path d="M75.6095 0H76.8572V1.24774H75.6095V0ZM75.7212 3.53837H76.7455V12.8499H75.7212V3.53837Z" fill="white"/>
<path d="M80.0046 3.53837V2.86795C80.0046 0.912528 80.6005 0 82.649 0H83.0774V0.98702H82.6676C81.1778 0.98702 81.0288 1.6947 81.0288 3.12867V3.53837H83.0774V4.48815H81.0288V12.8499H80.0046V4.48815H78.8127V3.53837H80.0046Z" fill="white"/>
<path d="M84.1202 3.53837H85.3121V1.48984H86.3364V3.53837H88.627V4.48814H86.3364V9.70259C86.3364 11.1924 86.504 11.8629 88.0124 11.8629H88.627V12.8499H87.9752C85.908 12.8499 85.3121 11.9187 85.3121 9.98194V4.48814H84.1202V3.53837Z" fill="white"/>
</g>
<defs>
<clipPath id="clip0_567_226">
<rect width="88.627" height="16.5" fill="white"/>
</clipPath>
</defs>
</svg>
