<svg width="171" height="27" viewBox="0 0 171 27" fill="none" xmlns="http://www.w3.org/2000/svg">
<path d="M170.339 16.856L170.367 16.884C169.191 18.676 167.315 19.684 164.711 19.684C160.763 19.684 157.515 16.94 157.515 12.6C157.515 8.51201 160.259 5.12401 164.739 5.12401C167.371 5.12401 169.191 6.66401 169.191 8.70801C169.191 11.032 167.399 13.076 164.039 14.336C165.635 15.904 167.651 16.94 169.527 16.94C169.807 16.94 170.087 16.912 170.339 16.856ZM162.135 6.10401C161.407 6.10401 160.987 6.72001 160.987 7.75601C160.987 10.08 162.191 12.432 163.871 14.168C164.655 13.16 164.963 12.04 164.963 10.612C164.963 8.17601 163.339 6.10401 162.135 6.10401Z" fill="white"/>
<path d="M155.263 5.09601C155.459 5.09601 155.627 5.12401 155.795 5.18001V12.6H155.767C152.855 9.38001 151.539 8.65201 150.559 8.82001V18.956H152.659V19.404H143.559V18.956H144.959V8.79201L143.363 7.42001L150.559 5.01201V8.51201C152.155 6.41201 153.975 5.09601 155.263 5.09601Z" fill="white"/>
<path d="M134.126 19.684C130.094 19.684 126.398 16.828 126.398 12.32C126.398 8.31601 129.534 5.12401 134.098 5.12401C138.718 5.12401 142.05 7.92401 142.05 12.32C142.05 16.408 139.446 19.684 134.126 19.684ZM137.262 18.676C138.018 18.676 138.41 18.2 138.41 17.248C138.41 14.896 133.706 6.13201 131.242 6.13201C130.542 6.13201 130.122 6.63601 130.122 7.50401C130.122 10.248 134.966 18.676 137.262 18.676Z" fill="white"/>
<path d="M125.927 16.8L125.955 16.828C124.919 18.48 123.071 19.684 120.495 19.684C117.163 19.684 115.847 17.724 115.847 14.084V6.132H113.691V6.104L121.447 0V5.684H125.395V6.132H121.447V12.656C121.447 15.904 122.203 17.108 124.275 17.108C124.891 17.108 125.367 17.024 125.927 16.8Z" fill="white"/>
<path d="M106.742 19.684C105.426 19.684 103.578 19.544 101.618 18.956L102.486 14.392H102.514L105.986 19.04C106.378 19.152 106.574 19.18 106.91 19.18C108.142 19.18 108.982 18.536 108.982 17.388C108.982 16.548 108.478 16.072 107.302 15.456L105.454 14.476C103.13 13.244 102.01 11.928 102.01 9.80001C102.01 6.97201 104.306 5.12401 108.03 5.12401C109.85 5.12401 111.306 5.43201 112.678 5.93601L111.586 10.36H111.558L108.31 5.74001C108.17 5.68401 107.974 5.65601 107.834 5.65601C106.602 5.65601 105.986 6.35601 105.986 7.14001C105.986 8.12001 106.434 8.82001 108.086 9.68801L110.186 10.808C112.118 11.844 113.126 13.244 113.126 14.98C113.126 17.892 110.186 19.684 106.742 19.684Z" fill="white"/>
<path d="M91.6539 13.188V11.508H99.5219V13.188H91.6539Z" fill="white"/>
<path d="M84.2828 5.12401C87.1108 5.12401 89.2668 7.42001 89.2668 11.76C89.2668 16.688 86.5508 19.684 82.7708 19.684C81.4828 19.684 80.3628 19.292 79.4108 18.676V25.956H81.6508V26.404H72.4108V25.956H73.8108V8.73601L72.2148 7.36401L79.4108 4.84401V7.61601C80.8948 6.10401 82.6308 5.12401 84.2828 5.12401ZM80.7828 18.62C82.2388 18.62 83.2748 16.716 83.2748 13.356C83.2748 9.60401 82.4628 7.72801 80.5868 7.72801C80.1668 7.72801 79.8028 7.84001 79.4108 8.00801V18.2C79.8028 18.48 80.3068 18.62 80.7828 18.62Z" fill="white"/>
<path d="M69.9834 18.956H71.3834V19.404H64.3834V17.248C62.5354 18.592 60.9394 19.712 59.3714 19.712C56.8514 19.712 55.7594 18.256 55.7594 14.924V8.90401L54.1634 7.53201L61.3594 5.01201V13.804C61.3594 16.156 61.5554 17.08 62.9554 17.08C63.4034 17.08 63.9074 16.968 64.3834 16.8V8.76401L62.7874 7.39201L69.9834 4.87201V18.956Z" fill="white"/>
<path d="M48.0524 5.12401C50.8804 5.12401 53.0364 7.42001 53.0364 11.76C53.0364 16.688 50.3204 19.684 46.5404 19.684C45.2524 19.684 44.1324 19.292 43.1804 18.676V25.956H45.4204V26.404H36.1804V25.956H37.5804V8.73601L35.9844 7.36401L43.1804 4.84401V7.61601C44.6644 6.10401 46.4004 5.12401 48.0524 5.12401ZM44.5524 18.62C46.0084 18.62 47.0444 16.716 47.0444 13.356C47.0444 9.60401 46.2324 7.72801 44.3564 7.72801C43.9364 7.72801 43.5724 7.84001 43.1804 8.00801V18.2C43.5724 18.48 44.0764 18.62 44.5524 18.62Z" fill="white"/>
<path d="M26.747 19.684C22.715 19.684 19.019 16.828 19.019 12.32C19.019 8.31601 22.155 5.12401 26.719 5.12401C31.339 5.12401 34.671 7.92401 34.671 12.32C34.671 16.408 32.067 19.684 26.747 19.684ZM29.883 18.676C30.639 18.676 31.031 18.2 31.031 17.248C31.031 14.896 26.327 6.13201 23.863 6.13201C23.163 6.13201 22.743 6.63601 22.743 7.50401C22.743 10.248 27.587 18.676 29.883 18.676Z" fill="white"/>
<path d="M12.068 5.12401C14.896 5.12401 17.052 7.42001 17.052 11.76C17.052 16.688 14.336 19.684 10.556 19.684C9.268 19.684 8.148 19.292 7.196 18.676V25.956H9.436V26.404H0.196V25.956H1.596V8.73601L0 7.36401L7.196 4.84401V7.61601C8.68 6.10401 10.416 5.12401 12.068 5.12401ZM8.568 18.62C10.024 18.62 11.06 16.716 11.06 13.356C11.06 9.60401 10.248 7.72801 8.372 7.72801C7.952 7.72801 7.588 7.84001 7.196 8.00801V18.2C7.588 18.48 8.092 18.62 8.568 18.62Z" fill="white"/>
</svg>
