<svg width="32" height="32" viewBox="0 0 32 32" fill="none" xmlns="http://www.w3.org/2000/svg">
<path fill-rule="evenodd" clip-rule="evenodd" d="M30.2867 15.9997C31.9094 14.3508 32.488 11.8242 31.5493 9.55851C30.6109 7.29292 28.4157 5.91507 26.1019 5.89705C26.0839 3.58429 24.706 1.38903 22.4406 0.450722C20.1749 -0.48793 17.6488 0.0904045 16 1.71307C14.3518 0.0904045 11.8251 -0.48793 9.55918 0.450722C7.29258 1.38949 5.91515 3.58429 5.8976 5.89752C3.58433 5.91554 1.38914 7.29292 0.450877 9.55851C-0.487797 11.8248 0.0902979 14.3514 1.7132 16.0001C0.0906607 17.6489 -0.487797 20.1756 0.450327 22.4407C1.38914 24.7063 3.58483 26.0841 5.89801 26.1024C5.91602 28.4155 7.29399 30.6109 9.55964 31.5495C11.8251 32.4878 14.3518 31.9096 16.0005 30.2866C17.6488 31.9093 20.1749 32.4878 22.4406 31.5495C24.7065 30.6109 26.0844 28.4155 26.1023 26.102C28.4157 26.0837 30.6104 24.7063 31.5493 22.4407C32.488 20.1751 31.9094 17.6484 30.2867 15.9997Z" fill="#2DF1FF"/>
</svg>
