<svg width="61" height="48" viewBox="0 0 61 48" fill="none" xmlns="http://www.w3.org/2000/svg">
<path d="M42.1474 9.454C48.9527 7.63667 55.1781 4.48533 60.8234 0V44.196H53.8634V12.006C50.4994 13.5527 47.2127 14.7513 44.0034 15.602L42.1474 9.454Z" fill="#EBEBF5"/>
<path d="M38.976 47.386C35.8827 47.386 32.7507 46.4387 29.58 44.544C26.448 42.688 23.6833 40.2713 21.286 37.294C18.8887 34.278 17.1873 31.204 16.182 28.072L22.794 26.1C23.7993 29.116 25.5007 31.958 27.898 34.626C28.942 33.3887 29.754 31.8613 30.334 30.044C30.9527 28.2267 31.262 26.158 31.262 23.838C31.262 20.706 30.7207 18.0573 29.638 15.892C28.594 13.688 27.144 12.0447 25.288 10.962C23.4707 9.84068 21.402 9.28001 19.082 9.28001C16.762 9.28001 14.6933 9.84068 12.876 10.962C11.0587 12.0447 9.60867 13.688 8.526 15.892C7.482 18.0573 6.96 20.706 6.96 23.838C6.96 26.97 7.482 29.638 8.526 31.842C9.60867 34.046 11.0587 35.7087 12.876 36.83C14.6933 37.9127 16.762 38.454 19.082 38.454V44.834C15.5247 44.834 12.296 44.0027 9.396 42.34C6.53467 40.6773 4.25333 38.2607 2.552 35.09C0.850667 31.9193 0 28.1687 0 23.838C0 19.4687 0.831333 15.718 2.494 12.586C4.19533 9.41534 6.496 7.01801 9.396 5.39401C12.296 3.73134 15.5247 2.90001 19.082 2.90001C22.6393 2.90001 25.868 3.73134 28.768 5.39401C31.668 7.01801 33.9687 9.41534 35.67 12.586C37.3713 15.718 38.222 19.4687 38.222 23.838C38.222 27.0087 37.7773 29.87 36.888 32.422C35.9987 34.974 34.7033 37.1587 33.002 38.976C35.1673 40.3293 37.1587 41.006 38.976 41.006V47.386Z" fill="#EBEBF5"/>
</svg>
