<svg width="71" height="46" viewBox="0 0 71 46" fill="none" xmlns="http://www.w3.org/2000/svg">
<path d="M70.1613 42.688H42.4373V35.96L44.0613 34.684C48.7787 30.8947 52.8967 27.1827 56.4153 23.548C59.9727 19.9133 61.7513 16.5687 61.7513 13.514C61.7513 10.962 61.2873 9.14467 60.3593 8.062C59.47 6.94067 58.0007 6.38 55.9513 6.38C54.366 6.38 53.1673 6.65067 52.3553 7.192C51.5433 7.69467 50.9053 8.468 50.4413 9.512C50.016 10.5173 49.494 12.1607 48.8753 14.442L42.1473 12.818C42.8433 10.1887 43.5973 8.02333 44.4093 6.322C45.26 4.582 46.594 3.09333 48.4113 1.856C50.2673 0.618665 52.7807 0 55.9513 0C59.9727 0 63.1047 1.17933 65.3473 3.538C67.59 5.89667 68.7113 9.222 68.7113 13.514C68.7113 19.8553 63.3367 27.4533 52.5873 36.308H70.1613V42.688Z" fill="#EBEBF5"/>
<path d="M38.976 45.878C35.8827 45.878 32.7507 44.9307 29.58 43.036C26.448 41.18 23.6833 38.7633 21.286 35.786C18.8887 32.77 17.1873 29.696 16.182 26.564L22.794 24.592C23.7993 27.608 25.5007 30.45 27.898 33.118C28.942 31.8807 29.754 30.3533 30.334 28.536C30.9527 26.7187 31.262 24.65 31.262 22.33C31.262 19.198 30.7207 16.5493 29.638 14.384C28.594 12.18 27.144 10.5367 25.288 9.454C23.4707 8.33267 21.402 7.772 19.082 7.772C16.762 7.772 14.6933 8.33267 12.876 9.454C11.0587 10.5367 9.60867 12.18 8.526 14.384C7.482 16.5493 6.96 19.198 6.96 22.33C6.96 25.462 7.482 28.13 8.526 30.334C9.60867 32.538 11.0587 34.2007 12.876 35.322C14.6933 36.4047 16.762 36.946 19.082 36.946V43.326C15.5247 43.326 12.296 42.4947 9.396 40.832C6.53467 39.1693 4.25333 36.7527 2.552 33.582C0.850667 30.4113 0 26.6607 0 22.33C0 17.9607 0.831333 14.21 2.494 11.078C4.19533 7.90733 6.496 5.51 9.396 3.886C12.296 2.22333 15.5247 1.392 19.082 1.392C22.6393 1.392 25.868 2.22333 28.768 3.886C31.668 5.51 33.9687 7.90733 35.67 11.078C37.3713 14.21 38.222 17.9607 38.222 22.33C38.222 25.5007 37.7773 28.362 36.888 30.914C35.9987 33.466 34.7033 35.6507 33.002 37.468C35.1673 38.8213 37.1587 39.498 38.976 39.498V45.878Z" fill="#EBEBF5"/>
</svg>
