<svg width="72" height="46" viewBox="0 0 72 46" fill="none" xmlns="http://www.w3.org/2000/svg">
<path d="M47.3675 31.378C48.5275 32.6927 49.4168 33.64 50.0355 34.22C50.6541 34.8 51.4661 35.3027 52.4715 35.728C53.5155 36.1533 54.7721 36.366 56.2415 36.366C58.7548 36.366 60.7268 35.5927 62.1575 34.046C63.6268 32.4607 64.3615 30.4307 64.3615 27.956C64.3615 24.7467 63.6268 22.504 62.1575 21.228C60.7268 19.9133 58.8128 19.256 56.4155 19.256C54.7915 19.256 53.4381 19.5073 52.3555 20.01C51.2728 20.474 50.1321 21.1507 48.9335 22.04C48.0828 22.6587 47.4255 23.1033 46.9615 23.374L42.3215 17.98C44.9508 16.2013 46.9615 14.8673 48.3535 13.978C51.0988 12.1993 53.1675 10.788 54.5595 9.744C55.9901 8.66133 57.1888 7.54 58.1555 6.38H42.3215V0H67.8415C67.6868 4.91067 65.2895 9.35733 60.6495 13.34C63.7428 14.0747 66.2948 15.6407 68.3055 18.038C70.3161 20.4353 71.3215 23.7413 71.3215 27.956C71.3215 30.6627 70.7028 33.1567 69.4655 35.438C68.2281 37.6807 66.4495 39.4593 64.1295 40.774C61.8481 42.0887 59.2188 42.746 56.2415 42.746C53.6895 42.746 51.4855 42.34 49.6295 41.528C47.8121 40.7547 46.4201 39.9233 45.4535 39.034C44.4868 38.106 43.3848 36.946 42.1475 35.554L47.3675 31.378ZM48.1795 14.5C48.1408 14.5387 48.1215 14.558 48.1215 14.558C48.1215 14.558 48.1408 14.5387 48.1795 14.5Z" fill="#EBEBF5"/>
<path d="M38.976 45.53C35.8827 45.53 32.7507 44.5827 29.58 42.688C26.448 40.832 23.6833 38.4153 21.286 35.438C18.8887 32.422 17.1873 29.348 16.182 26.216L22.794 24.244C23.7993 27.26 25.5007 30.102 27.898 32.77C28.942 31.5327 29.754 30.0053 30.334 28.188C30.9527 26.3707 31.262 24.302 31.262 21.982C31.262 18.85 30.7207 16.2013 29.638 14.036C28.594 11.832 27.144 10.1887 25.288 9.10601C23.4707 7.98468 21.402 7.42401 19.082 7.42401C16.762 7.42401 14.6933 7.98468 12.876 9.10601C11.0587 10.1887 9.60867 11.832 8.526 14.036C7.482 16.2013 6.96 18.85 6.96 21.982C6.96 25.114 7.482 27.782 8.526 29.986C9.60867 32.19 11.0587 33.8527 12.876 34.974C14.6933 36.0567 16.762 36.598 19.082 36.598V42.978C15.5247 42.978 12.296 42.1467 9.396 40.484C6.53467 38.8213 4.25333 36.4047 2.552 33.234C0.850667 30.0633 0 26.3127 0 21.982C0 17.6127 0.831333 13.862 2.494 10.73C4.19533 7.55934 6.496 5.16201 9.396 3.53801C12.296 1.87534 15.5247 1.04401 19.082 1.04401C22.6393 1.04401 25.868 1.87534 28.768 3.53801C31.668 5.16201 33.9687 7.55934 35.67 10.73C37.3713 13.862 38.222 17.6127 38.222 21.982C38.222 25.1527 37.7773 28.014 36.888 30.566C35.9987 33.118 34.7033 35.3027 33.002 37.12C35.1673 38.4733 37.1587 39.15 38.976 39.15V45.53Z" fill="#EBEBF5"/>
</svg>
