<svg width="72" height="46" viewBox="0 0 72 46" fill="none" xmlns="http://www.w3.org/2000/svg">
<path d="M71.6115 34.858H66.2175V42.34H59.2575V34.858H42.1475C42.9208 23.954 47.4255 12.3347 55.6615 0H63.8975C56.6668 10.0533 52.0655 19.546 50.0935 28.478H59.2575V14.616H66.2175V28.478H71.6115V34.858Z" fill="#EBEBF5"/>
<path d="M38.976 45.53C35.8827 45.53 32.7507 44.5827 29.58 42.688C26.448 40.832 23.6833 38.4153 21.286 35.438C18.8887 32.422 17.1873 29.348 16.182 26.216L22.794 24.244C23.7993 27.26 25.5007 30.102 27.898 32.77C28.942 31.5327 29.754 30.0053 30.334 28.188C30.9527 26.3707 31.262 24.302 31.262 21.982C31.262 18.85 30.7207 16.2013 29.638 14.036C28.594 11.832 27.144 10.1887 25.288 9.10601C23.4707 7.98468 21.402 7.42401 19.082 7.42401C16.762 7.42401 14.6933 7.98468 12.876 9.10601C11.0587 10.1887 9.60867 11.832 8.526 14.036C7.482 16.2013 6.96 18.85 6.96 21.982C6.96 25.114 7.482 27.782 8.526 29.986C9.60867 32.19 11.0587 33.8527 12.876 34.974C14.6933 36.0567 16.762 36.598 19.082 36.598V42.978C15.5247 42.978 12.296 42.1467 9.396 40.484C6.53467 38.8213 4.25333 36.4047 2.552 33.234C0.850667 30.0633 0 26.3127 0 21.982C0 17.6127 0.831333 13.862 2.494 10.73C4.19533 7.55934 6.496 5.16201 9.396 3.53801C12.296 1.87534 15.5247 1.04401 19.082 1.04401C22.6393 1.04401 25.868 1.87534 28.768 3.53801C31.668 5.16201 33.9687 7.55934 35.67 10.73C37.3713 13.862 38.222 17.6127 38.222 21.982C38.222 25.1527 37.7773 28.014 36.888 30.566C35.9987 33.118 34.7033 35.3027 33.002 37.12C35.1673 38.4733 37.1587 39.15 38.976 39.15V45.53Z" fill="#EBEBF5"/>
</svg>
