<svg width="128" height="13" viewBox="0 0 128 13" fill="none" xmlns="http://www.w3.org/2000/svg">
<g clip-path="url(#clip0_564_300)">
<path d="M9.59228 13C8.12996 12.6165 6.69447 12.1933 5.4468 11.7569C5.21874 11.6775 4.99067 11.5982 4.78943 11.5982C2.2136 11.5056 0.0134125 9.62767 0.0134125 6.18922C0.0134125 2.75076 2.11969 0.568668 5.05775 0.568668C7.9958 0.568668 9.91426 2.81689 9.91426 5.97762C9.91426 8.71516 8.62635 10.4873 6.82863 11.0956V11.1618C7.90189 11.4262 9.08248 11.6907 9.99475 11.8494L9.59228 13.0132V13ZM8.43852 6.04375C8.43852 3.90132 7.3116 1.69278 5.0175 1.69278C2.7234 1.69278 1.48915 3.84842 1.50256 6.16277C1.48915 8.43744 2.76365 10.4741 4.95042 10.4741C7.13719 10.4741 8.43852 8.47711 8.43852 6.03052V6.04375Z" fill="white"/>
<path d="M18.2589 9.33673C18.2589 10.1302 18.2723 10.8311 18.326 11.4262H17.0649L16.9844 10.1699H16.9576C16.5819 10.7915 15.7635 11.5982 14.3817 11.5982C13.1609 11.5982 11.6986 10.9369 11.6986 8.23907V3.75585H13.1072V8.00102C13.1072 9.45575 13.5634 10.4476 14.8379 10.4476C15.7904 10.4476 16.4477 9.7996 16.7026 9.17803C16.7831 8.96643 16.8368 8.71516 16.8368 8.46389V3.75585H18.2455V9.33673H18.2589Z" fill="white"/>
<path d="M22.1897 1.6002C22.2031 2.0763 21.8543 2.45982 21.2908 2.45982C20.7945 2.45982 20.4322 2.0763 20.4322 1.6002C20.4322 1.12411 20.8079 0.727364 21.3177 0.727364C21.8275 0.727364 22.1897 1.11088 22.1897 1.6002ZM20.6066 11.4395V3.75585H22.0153V11.4262H20.6066V11.4395Z" fill="white"/>
<path d="M23.491 10.6328L27.0194 6.10987C27.3548 5.6999 27.6768 5.3296 28.039 4.91963V4.89318H23.8264V3.76907H29.7696V4.64191L26.2815 9.09868C25.9595 9.52187 25.6376 9.90539 25.2888 10.3021V10.3286H29.8367V11.4395H23.5179V10.6328H23.491Z" fill="white"/>
<path d="M34.8274 11.4395V4.82706H33.7407V3.76907H34.8274V3.39878C34.8274 2.31434 35.0689 1.33571 35.7262 0.71414C36.2629 0.211597 36.9605 0 37.6313 0C38.1277 0 38.5704 0.105799 38.8387 0.224822L38.6509 1.30926C38.4362 1.21668 38.1545 1.13733 37.752 1.13733C36.5446 1.13733 36.236 2.1821 36.236 3.3591V3.76907H38.1142V4.82706H36.236V11.4395H34.8408H34.8274Z" fill="white"/>
<path d="M46.2174 7.53815C46.2174 10.3815 44.2184 11.6114 42.3402 11.6114C40.2339 11.6114 38.6106 10.0905 38.6106 7.65717C38.6106 5.09156 40.3144 3.58393 42.4744 3.58393C44.6343 3.58393 46.2174 5.18413 46.2174 7.53815ZM40.0327 7.6175C40.0327 9.29705 41.0121 10.5666 42.3939 10.5666C43.7757 10.5666 44.7551 9.31027 44.7551 7.59105C44.7551 6.29502 44.0977 4.64191 42.4207 4.64191C40.7437 4.64191 40.0193 6.16277 40.0193 7.6175H40.0327Z" fill="white"/>
<path d="M48.0017 6.14954C48.0017 5.25025 47.9883 4.46999 47.9346 3.75585H49.1689L49.2225 5.26348H49.2896C49.6384 4.23194 50.497 3.58393 51.4495 3.58393C51.6105 3.58393 51.7179 3.59715 51.852 3.63683V4.95931C51.7044 4.93286 51.5569 4.90641 51.369 4.90641C50.3763 4.90641 49.6652 5.647 49.4774 6.70499C49.4506 6.89013 49.4103 7.11495 49.4103 7.353V11.4395H48.0151V6.16277L48.0017 6.14954Z" fill="white"/>
<path d="M64.3153 11.0824C63.8055 11.3337 62.7725 11.5849 61.4577 11.5849C58.3989 11.5849 56.1048 9.68057 56.1048 6.17599C56.1048 2.67141 58.3989 0.555443 61.7663 0.555443C63.1213 0.555443 63.9665 0.846389 64.3421 1.03154L64.0067 2.15565C63.4835 1.90437 62.7188 1.706 61.8199 1.706C59.2844 1.706 57.594 3.30621 57.594 6.10987C57.594 8.72838 59.1234 10.4079 61.7663 10.4079C62.6115 10.4079 63.4835 10.236 64.047 9.95829L64.3287 11.056L64.3153 11.0824Z" fill="white"/>
<path d="M66.0191 0.171921H67.4277V4.95931H67.468C67.696 4.56256 68.0449 4.21872 68.4876 3.98067C68.9035 3.74262 69.3999 3.58393 69.9365 3.58393C70.9829 3.58393 72.6599 4.21872 72.6599 6.86368V11.4262H71.2512V7.02238C71.2512 5.77925 70.7817 4.73448 69.4535 4.73448C68.5412 4.73448 67.8168 5.36928 67.5485 6.12309C67.468 6.30824 67.4546 6.51984 67.4546 6.78433V11.413H66.0459V0.171921H66.0191Z" fill="white"/>
<path d="M81.4741 9.33673C81.4741 10.1302 81.4875 10.8311 81.5411 11.4262H80.28L80.1996 10.1699H80.1727C79.7971 10.7915 78.9787 11.5982 77.5969 11.5982C76.3761 11.5982 74.9137 10.9369 74.9137 8.23907V3.75585H76.3224V8.00102C76.3224 9.45575 76.7785 10.4476 78.053 10.4476C79.0055 10.4476 79.6629 9.7996 79.9178 9.17803C79.9983 8.96643 80.052 8.71516 80.052 8.46389V3.75585H81.4606V9.33673H81.4741Z" fill="white"/>
<path d="M83.8218 6.14954C83.8218 5.25025 83.8084 4.46999 83.7547 3.75585H84.989L85.0426 5.26348H85.1097C85.4585 4.23194 86.3171 3.58393 87.2697 3.58393C87.4307 3.58393 87.538 3.59715 87.6721 3.63683V4.95931C87.5246 4.93286 87.3904 4.90641 87.1892 4.90641C86.1964 4.90641 85.4854 5.647 85.2841 6.70499C85.2573 6.89013 85.2171 7.11495 85.2171 7.353V11.4395H83.8218V6.16277V6.14954Z" fill="white"/>
<path d="M93.3202 11.4395L93.2129 10.4741H93.1592C92.7299 11.0824 91.8847 11.6114 90.7712 11.6114C89.1881 11.6114 88.3832 10.5137 88.3832 9.40285C88.3832 7.55137 90.0602 6.53306 93.0653 6.54629V6.38759C93.0653 5.7528 92.8909 4.61546 91.2944 4.61546C90.57 4.61546 89.8187 4.84028 89.2686 5.18413L88.9466 4.25839C89.5906 3.84842 90.5297 3.5707 91.5091 3.5707C93.8971 3.5707 94.4739 5.17091 94.4739 6.70498V9.57477C94.4739 10.236 94.5142 10.8973 94.6081 11.413H93.3202V11.4395ZM93.1055 7.5117C91.5627 7.48525 89.8053 7.74975 89.8053 9.24415C89.8053 10.1434 90.4224 10.5799 91.1334 10.5799C92.153 10.5799 92.797 9.94507 93.0116 9.29705C93.0653 9.15158 93.0921 8.99288 93.0921 8.84741V7.5117H93.1055Z" fill="white"/>
<path d="M97.1839 3.75585L98.7133 8.06714C98.9682 8.76806 99.1829 9.40285 99.3439 10.0376H99.3975C99.5719 9.40285 99.8 8.76806 100.055 8.06714L101.571 3.75585H103.047L99.9878 11.4262H98.6328L95.6679 3.75585H97.1839Z" fill="white"/>
<path d="M105.005 7.85555C105.046 9.7467 106.266 10.5137 107.675 10.5137C108.695 10.5137 109.298 10.3418 109.835 10.117L110.077 11.1221C109.58 11.3469 108.722 11.5982 107.487 11.5982C105.086 11.5982 103.664 10.0376 103.664 7.7233C103.664 5.40895 105.046 3.58393 107.313 3.58393C109.848 3.58393 110.533 5.79247 110.533 7.1943C110.533 7.47203 110.492 7.69685 110.479 7.84232H105.005V7.85555ZM109.164 6.85046C109.178 5.9644 108.789 4.58901 107.206 4.58901C105.77 4.58901 105.139 5.88505 105.032 6.85046H109.164Z" fill="white"/>
<path d="M112.29 0.171921H113.699V11.4262H112.29V0.171921Z" fill="white"/>
<path d="M116.878 7.85555C116.919 9.7467 118.139 10.5137 119.548 10.5137C120.568 10.5137 121.171 10.3418 121.708 10.117L121.949 11.1221C121.453 11.3469 120.594 11.5982 119.36 11.5982C116.959 11.5982 115.537 10.0376 115.537 7.7233C115.537 5.40895 116.919 3.58393 119.186 3.58393C121.721 3.58393 122.406 5.79247 122.406 7.1943C122.406 7.47203 122.365 7.69685 122.352 7.84232H116.878V7.85555ZM121.024 6.85046C121.037 5.9644 120.648 4.58901 119.065 4.58901C117.63 4.58901 116.999 5.88505 116.892 6.85046H121.024Z" fill="white"/>
<path d="M124.15 6.14954C124.15 5.25025 124.136 4.46999 124.083 3.75585H125.317L125.37 5.26348H125.438C125.786 4.23194 126.645 3.58393 127.598 3.58393C127.758 3.58393 127.866 3.59715 128 3.63683V4.95931C127.852 4.93286 127.705 4.90641 127.517 4.90641C126.524 4.90641 125.813 5.647 125.625 6.70499C125.599 6.89013 125.558 7.11495 125.558 7.353V11.4395H124.163V6.16277L124.15 6.14954Z" fill="white"/>
</g>
<defs>
<clipPath id="clip0_564_300">
<rect width="128" height="13" fill="white"/>
</clipPath>
</defs>
</svg>
